<svg viewBox="0 0 567 567" xmlns="http://www.w3.org/2000/svg" xml:space="preserve" style="fill-rule:evenodd;clip-rule:evenodd;stroke-linejoin:round;stroke-miterlimit:2"><path style="fill:none" d="M0 0h566.929v566.929H0z"/><path d="M28.346 347.244c0 63.381 51.423 114.803 114.804 114.803h293.385c56.366 0 102.048-45.682 102.048-102.047 0-49.349-35.079-90.567-81.638-99.974a77.063 77.063 0 0 0 5.102-27.585c0-42.254-34.281-76.535-76.535-76.535a76.143 76.143 0 0 0-42.493 12.915c-22.084-38.268-63.301-63.939-110.578-63.939-70.476 0-127.559 57.083-127.559 127.559 0 2.153.08 4.305.159 6.458-44.645 15.705-76.695 58.278-76.695 108.345Z" style="fill:#fff;fill-rule:nonzero"/></svg>