<svg width="200" height="200" viewBox="0 0 200 200" fill="none" xmlns="http://www.w3.org/2000/svg">
<rect width="200" height="200" fill="white"/>
<rect width="200" height="200" fill="white"/>
<g opacity="0.3" filter="url(#filter0_d_189_80)">
<path d="M92.8172 42.6662C93.1088 40.4 100.463 31.1747 113.635 34.571C136.687 40.5144 129.725 61.8402 127.178 71.7195C124.631 81.5988 134.735 100.301 136.242 110.347C138.16 123.134 136.557 132.964 132.123 137.674C128.985 141.008 104.041 161.456 99.3757 160.254L74.4031 153.815C71.6588 153.107 69.3048 155.427 64.7982 151.338C61.3557 148.215 52.8857 113.732 53.556 109.808C54.4179 104.762 63.5298 99.5019 65.3523 94.7038C68.1872 87.24 77.4058 82.0075 78.7244 80.2988C80.0429 78.5901 86.4599 75.2692 87.5919 70.8784C88.724 66.4876 87.7228 62.4248 88.7842 58.3084C89.8455 54.192 92.5256 44.9323 92.8172 42.6662Z" fill="#13093A"/>
<path d="M82.425 81.8382C90.6094 77.3375 89.7511 67.0451 93.4688 66.2475C101.479 61.2887 110.164 67.3327 112.803 72.9885C115.442 78.6443 116.497 84.7696 116.267 87.9298C116.038 91.09 121.689 107.766 117.514 123.957C112.562 143.167 97.5274 152.753 79.1201 148.007C70.3168 145.737 66.4237 141.115 67.6372 139.193L75.8507 134.579C77.5273 128.077 61.9152 122.792 64.7454 111.815C66.9388 103.308 71.2311 99.1462 74.2135 95.5251C77.1958 91.904 79.1872 83.6187 82.425 81.8382Z" fill="white"/>
<ellipse cx="112.473" cy="61.782" rx="6.51819" ry="8.50199" transform="rotate(14.4577 112.473 61.782)" fill="white"/>
<ellipse cx="96.9721" cy="57.2002" rx="4.53439" ry="6.80159" transform="rotate(14.4577 96.9721 57.2002)" fill="white"/>
<path d="M134.867 138.382C133.929 151.31 146.485 156.888 137.528 159.847C128.571 162.805 125.968 161.549 115.126 168.412C109.105 172.222 95.8279 166.07 100.907 157.722C104.032 152.586 106.826 134.766 109.346 131.801C116.488 123.399 113.49 138.43 120.351 140.199C126.14 141.692 135.326 132.061 134.867 138.382Z" fill="#720F3A"/>
<path d="M41.9358 119.689C49.2242 120.934 52.3385 109.99 58.4079 113.693C64.4773 117.395 64.9661 129.672 70.5057 141.689C76.3242 154.31 60.0644 159.483 56.319 154.713C53.844 151.561 37.7024 143.42 33.3274 140.59C28.0598 137.183 34.6354 130.977 34.6076 125.409C34.5851 120.886 36.3294 118.731 41.9358 119.689Z" fill="#720F3A"/>
<path d="M91.1758 69.451C96.1414 67.2192 97.3892 65.7849 97.3892 65.7849C97.3892 65.7849 110.995 66.3661 114.776 75.536C116.841 80.5414 111.863 80.8995 108.679 82.1584C105.094 83.5755 100.545 85.3292 96.7028 84.3386C92.8607 83.348 90.912 77.2849 89.6192 75.4883C88.3264 73.6916 87.8055 70.9658 91.1758 69.451Z" fill="#720F3A"/>
</g>
<defs>
<filter id="filter0_d_189_80" x="27.2825" y="33.8283" width="117.486" height="143.738" filterUnits="userSpaceOnUse" color-interpolation-filters="sRGB">
<feFlood flood-opacity="0" result="BackgroundImageFix"/>
<feColorMatrix in="SourceAlpha" type="matrix" values="0 0 0 0 0 0 0 0 0 0 0 0 0 0 0 0 0 0 127 0" result="hardAlpha"/>
<feOffset dy="4"/>
<feGaussianBlur stdDeviation="2"/>
<feComposite in2="hardAlpha" operator="out"/>
<feColorMatrix type="matrix" values="0 0 0 0 0 0 0 0 0 0 0 0 0 0 0 0 0 0 0.25 0"/>
<feBlend mode="normal" in2="BackgroundImageFix" result="effect1_dropShadow_189_80"/>
<feBlend mode="normal" in="SourceGraphic" in2="effect1_dropShadow_189_80" result="shape"/>
</filter>
</defs>
</svg>
