<svg viewBox="0 0 567 567" xmlns="http://www.w3.org/2000/svg" xml:space="preserve" style="fill-rule:evenodd;clip-rule:evenodd;stroke-linejoin:round;stroke-miterlimit:2"><path style="fill:none" d="M0 0h566.929v566.929H0z"/><path d="M529.228 220.249c-8.769-35.191-25.397-61.727-60.816-61.727h-45.669v53.983c0 41.911-35.533 77.216-76.078 77.216H225.033c-33.256 0-60.817 28.472-60.817 61.842v115.938c0 33.028 28.7 52.389 60.817 61.841 38.494 11.275 75.508 13.325 121.632 0 30.636-8.883 60.817-26.763 60.817-61.841v-46.353H285.963V405.66h182.449c35.419 0 48.516-24.714 60.816-61.728 12.756-38.153 12.186-74.825 0-123.683Z" style="fill:#f7c639"/><path d="M219.452 274.46h121.633c33.825 0 60.816-27.903 60.816-61.841V96.567c0-33.028-27.789-57.742-60.816-63.322-40.772-6.72-85.075-6.378-121.633.113-51.478 9.112-60.816 28.131-60.816 63.322v46.353h121.746v15.489H112.966c-35.419 0-66.397 21.297-76.077 61.727-11.161 46.353-11.617 75.28 0 123.683 8.655 35.989 29.269 61.728 64.689 61.728h41.797v-55.578c0-40.203 34.736-75.622 76.077-75.622Z" style="fill:#316994"/><path d="M354.296 452.012c12.641 0 22.891 10.364 22.891 23.119 0 12.87-10.25 23.234-22.891 23.234-12.528 0-22.892-10.478-22.892-23.234.114-12.869 10.364-23.119 22.892-23.119ZM211.821 112.055c-12.641 0-22.891-10.364-22.891-23.119.114-12.869 10.25-23.233 22.891-23.233 12.528 0 22.892 10.477 22.892 23.233 0 12.755-10.25 23.119-22.892 23.119Z" style="fill:#fff"/></svg>